<?xml version="1.0" standalone="no"?>
<!DOCTYPE svg PUBLIC "-//W3C//DTD SVG 20010904//EN"
 "http://www.w3.org/TR/2001/REC-SVG-20010904/DTD/svg10.dtd">
<svg version="1.0" xmlns="http://www.w3.org/2000/svg"
 width="528.000000pt" height="528.000000pt" viewBox="0 0 528.000000 528.000000"
 preserveAspectRatio="xMidYMid meet">
<metadata>
Created by potrace 1.11, written by Peter Selinger 2001-2013
</metadata>
<g transform="translate(0.000000,528.000000) scale(0.100000,-0.100000)"
fill="#000000" stroke="none">
<path d="M3502 5271 c-6 -3 -43 -141 -82 -306 -39 -165 -82 -343 -94 -395 -22
-90 -51 -211 -61 -258 -3 -12 -7 -30 -9 -39 -36 -153 -70 -295 -87 -363 l-21
-85 -141 0 c-163 0 -195 -4 -307 -41 -212 -70 -401 -229 -504 -425 -49 -93
-69 -154 -122 -369 -155 -631 -465 -1156 -895 -1515 -162 -135 -373 -263 -539
-326 -47 -17 -87 -33 -89 -35 -5 -4 -71 -236 -71 -249 0 -11 57 -24 588 -140
138 -30 363 -79 500 -109 136 -30 305 -67 375 -82 l129 -27 -5 -44 c-25 -253
221 -462 468 -398 59 16 146 66 181 106 31 35 72 103 80 133 3 15 10 29 15 32
8 5 126 -20 1069 -226 454 -100 520 -113 525 -108 2 2 15 56 29 119 14 64 26
120 28 125 1 5 -28 41 -66 79 -327 336 -552 876 -593 1420 -12 168 -6 509 11
601 2 10 7 45 10 76 9 71 19 132 50 288 45 231 23 437 -65 613 -72 142 -176
264 -294 344 -63 44 -200 113 -222 113 -7 0 -13 1 -13 3 0 3 55 240 65 277 7
28 27 115 31 135 16 78 18 80 65 77 159 -9 292 -84 362 -203 15 -25 38 -88 51
-140 72 -286 160 -375 434 -440 70 -17 156 -39 191 -50 35 -10 69 -19 76 -19
10 0 40 89 50 150 4 22 77 332 84 355 15 48 103 427 109 463 2 17 1 32 -2 32
-15 0 -366 93 -404 107 -93 35 -156 133 -198 308 -54 229 -194 370 -429 432
-31 9 -250 12 -263 4z"/>
</g>
</svg>
