<?xml version="1.0" encoding="utf-8"?>
<!-- Generator: Adobe Illustrator 23.0.1, SVG Export Plug-In . SVG Version: 6.00 Build 0)  -->
<svg version="1.1" id="Layer_1" xmlns="http://www.w3.org/2000/svg" xmlns:xlink="http://www.w3.org/1999/xlink" x="0px" y="0px"
	 viewBox="0 0 221.6 142" style="enable-background:new 0 0 221.6 142;" xml:space="preserve">
<style type="text/css">
	.st0{filter:url(#Adobe_OpacityMaskFilter);}
	.st1{fill-rule:evenodd;clip-rule:evenodd;fill:#FFFFFF;}
	.st2{mask:url(#mask-2_2_);fill-rule:evenodd;clip-rule:evenodd;fill:#6FCCE0;}
	.st3{fill-rule:evenodd;clip-rule:evenodd;fill:#1E3161;}
	.st4{fill-rule:evenodd;clip-rule:evenodd;fill:#6FCCE0;}
</style>
<title>Group</title>
<desc>Created with Sketch.</desc>
<g id="Page-1">
	<g transform="translate(0.000000, -1.000000)">
		<g id="Group-3" transform="translate(29.000000, 0.223000)">
			<g id="Clip-2">
			</g>
			<defs>
				<filter id="Adobe_OpacityMaskFilter" filterUnits="userSpaceOnUse" x="1.4" y="1" width="28.3" height="51.7">
					<feColorMatrix  type="matrix" values="1 0 0 0 0  0 1 0 0 0  0 0 1 0 0  0 0 0 1 0"/>
				</filter>
			</defs>
			<mask maskUnits="userSpaceOnUse" x="1.4" y="1" width="28.3" height="51.7" id="mask-2_2_">
				<g class="st0">
					<polygon id="path-1_2_" class="st1" points="1.4,1 29.7,1 29.7,52.7 1.4,52.7 					"/>
				</g>
			</mask>
			<path id="Fill-1" class="st2" d="M27.6,8.7l-1.1,0c-1.3,0-2.5,0.2-3.5,0.3c-3.5,0.5-5,0.7-7.9-3.8C11.4-0.5,5,0.8,2.1,2.3
				L1.4,2.6l0.1,0.9h0l6,49.1l2.3-0.3L5.8,19.3c1.8-0.7,6.4-1.9,9.3,2.6c3.7,5.6,6.5,5.3,10.1,4.8c1-0.1,2-0.3,3.2-0.3l1.3,0
				L27.6,8.7z"/>
		</g>
		<path id="Fill-4" class="st3" d="M11.3,45.5l-0.7,15.3l5.2-0.6L11.3,45.5L11.3,45.5z M16.3,37.5l13,34.4l-9.8,1.2L17.8,67
			l-7.3,0.9l-0.2,6.3l-9.7,1.2L4.7,39L16.3,37.5z"/>
		<polygon id="Fill-6" class="st3" points="22.5,44.7 21.6,36.9 44.6,34.1 45.6,41.9 38.6,42.8 42,70.4 32.8,71.5 29.4,43.9 		"/>
		<path id="Fill-8" class="st3" d="M72,40.2c-0.1-1.1-0.5-1.9-1-2.6c-0.5-0.7-1.2-1-2.1-0.9c-1,0.1-1.7,0.5-2.1,1.2
			c-0.4,0.7-0.5,1.5-0.4,2.2c0.1,1.2,0.6,2,1.5,2.6c0.8,0.6,1.8,1.1,3,1.4c1.2,0.4,2.5,0.7,3.8,1.1c1.4,0.4,2.6,0.9,3.9,1.6
			c1.2,0.7,2.3,1.7,3.2,2.9c0.9,1.2,1.5,2.9,1.8,5.1c0.5,3.8-0.3,6.6-2.2,8.6c-1.9,2-4.9,3.2-9,3.7c-1.9,0.2-3.6,0.3-5.1,0.2
			c-1.5-0.1-2.8-0.5-3.9-1.2c-1.1-0.7-2-1.6-2.7-2.8c-0.7-1.2-1.1-2.7-1.4-4.6l-0.2-1.2l8.9-1.1l0.1,0.8c0.2,1.5,0.6,2.6,1.2,3.1
			c0.6,0.5,1.4,0.8,2.3,0.7c1-0.1,1.7-0.5,2.1-1.3c0.4-0.7,0.6-1.6,0.5-2.5c-0.1-1.2-0.6-2-1.4-2.6c-0.8-0.6-1.8-1.1-2.9-1.4
			c-1.1-0.3-2.4-0.7-3.7-1c-1.3-0.3-2.6-0.8-3.7-1.5c-1.2-0.7-2.2-1.6-3.1-2.8c-0.9-1.2-1.4-2.8-1.7-4.9c-0.4-3.6,0.2-6.5,1.9-8.6
			c1.7-2.1,4.5-3.4,8.4-3.9c4-0.5,7.1,0,9.1,1.5c2,1.5,3.3,4.2,3.7,8l-8.6,1.1L72,40.2z"/>
		<path id="Fill-10" class="st3" d="M98.1,34.2c-0.5-0.7-1.2-1-2.1-0.9c-0.7,0.1-1.2,0.3-1.6,0.8c-0.4,0.4-0.6,1.1-0.7,2.1
			c-0.1,1-0.1,2.2,0,3.8c0.1,1.6,0.3,3.6,0.6,5.9c0.3,2.4,0.6,4.4,0.8,5.9c0.3,1.6,0.6,2.8,0.9,3.7c0.3,0.9,0.7,1.5,1.2,1.8
			c0.5,0.3,1,0.4,1.7,0.3c0.6-0.1,1-0.3,1.3-0.6c0.3-0.3,0.6-0.8,0.7-1.5c0.1-0.7,0.1-1.6,0.1-2.7c-0.1-1.1-0.2-2.5-0.4-4.2l8.9-1.1
			l0.3,2.6c0.3,2.5,0.2,4.6-0.2,6.2c-0.5,1.7-1.2,3-2.2,4.1c-1,1-2.2,1.8-3.5,2.3c-1.4,0.5-2.8,0.8-4.3,1c-2.6,0.3-4.7,0.3-6.5-0.2
			c-1.7-0.4-3.2-1.3-4.3-2.7c-1.1-1.4-2-3.2-2.6-5.5c-0.6-2.3-1.2-5.1-1.6-8.4c-0.4-3.4-0.6-6.3-0.4-8.7c0.1-2.4,0.6-4.4,1.4-6
			c0.8-1.6,2-2.8,3.5-3.6c1.5-0.8,3.5-1.4,5.9-1.7c2.1-0.3,3.9-0.2,5.4,0.1c1.5,0.4,2.8,1,3.8,1.8c1,0.9,1.8,2,2.4,3.3
			c0.6,1.3,1,2.8,1.2,4.6l0.3,2.2l-8.9,1.1l-0.2-2C99,36.3,98.6,34.9,98.1,34.2"/>
		<polygon id="Fill-12" class="st3" points="119.6,24.9 121.2,37.9 126.9,37.2 125.3,24.2 134.5,23 138.9,58.5 129.6,59.6 127.8,45 
			122.2,45.7 124,60.3 114.7,61.4 110.4,26 		"/>
		<path id="Fill-14" class="st3" d="M150.4,45.1c0.3,1.6,0.6,2.8,0.9,3.7c0.3,0.9,0.7,1.5,1.2,1.8c0.5,0.3,1,0.4,1.7,0.3
			c0.7-0.1,1.2-0.3,1.6-0.8c0.4-0.4,0.6-1.1,0.7-2.1c0.1-1,0.1-2.2,0-3.8c-0.1-1.6-0.3-3.6-0.6-5.9c-0.3-2.4-0.6-4.4-0.8-5.9
			c-0.3-1.6-0.6-2.8-0.9-3.7c-0.3-0.9-0.7-1.5-1.2-1.8c-0.5-0.3-1-0.4-1.7-0.3c-0.7,0.1-1.2,0.3-1.6,0.8c-0.4,0.4-0.6,1.1-0.7,2.1
			c-0.1,1-0.1,2.2,0,3.8c0.1,1.6,0.3,3.6,0.6,5.9C149.8,41.5,150.1,43.5,150.4,45.1 M139.6,31.8c0.1-2.4,0.6-4.4,1.4-6
			c0.8-1.6,2-2.8,3.5-3.7c1.5-0.9,3.5-1.5,5.8-1.7c2.3-0.3,4.4-0.2,6.1,0.3c1.7,0.5,3.1,1.4,4.3,2.7c1.2,1.4,2.1,3.2,2.8,5.4
			c0.7,2.3,1.3,5.1,1.7,8.4c0.4,3.3,0.5,6.2,0.4,8.5c-0.1,2.4-0.6,4.4-1.4,6c-0.8,1.6-2,2.8-3.5,3.6c-1.5,0.8-3.5,1.4-5.8,1.7
			c-2.4,0.3-4.4,0.2-6.1-0.2c-1.7-0.4-3.1-1.3-4.3-2.7c-1.2-1.3-2.1-3.2-2.8-5.4c-0.7-2.3-1.3-5.1-1.7-8.4
			C139.6,37,139.5,34.2,139.6,31.8"/>
		<path id="Fill-16" class="st3" d="M178,41.7c0.3,1.6,0.6,2.8,0.9,3.7c0.3,0.9,0.7,1.5,1.2,1.8c0.5,0.3,1,0.4,1.7,0.3
			c0.7-0.1,1.2-0.3,1.6-0.8c0.4-0.4,0.6-1.1,0.7-2.1c0.1-1,0.1-2.2,0-3.8c-0.1-1.6-0.3-3.6-0.6-5.9c-0.3-2.4-0.6-4.4-0.8-5.9
			c-0.3-1.6-0.6-2.8-0.9-3.7c-0.3-0.9-0.7-1.5-1.2-1.8c-0.5-0.3-1-0.4-1.7-0.3c-0.7,0.1-1.2,0.3-1.6,0.8c-0.4,0.4-0.6,1.1-0.7,2.1
			c-0.1,1-0.1,2.2,0,3.8c0.1,1.6,0.3,3.6,0.6,5.9C177.4,38.2,177.7,40.1,178,41.7 M167.2,28.4c0.1-2.4,0.6-4.4,1.4-6
			c0.8-1.6,2-2.8,3.5-3.7c1.5-0.9,3.5-1.5,5.8-1.7c2.3-0.3,4.4-0.2,6.1,0.3c1.7,0.5,3.1,1.4,4.3,2.7c1.2,1.4,2.1,3.2,2.8,5.4
			c0.7,2.3,1.3,5.1,1.7,8.4c0.4,3.3,0.5,6.2,0.4,8.5c-0.1,2.4-0.6,4.4-1.4,6c-0.8,1.6-2,2.8-3.5,3.6c-1.5,0.8-3.5,1.4-5.8,1.7
			c-2.3,0.3-4.4,0.2-6.1-0.2c-1.7-0.4-3.1-1.3-4.3-2.7c-1.2-1.3-2.1-3.2-2.8-5.4c-0.7-2.3-1.3-5.1-1.7-8.4
			C167.2,33.6,167.1,30.8,167.2,28.4"/>
		<polygon id="Fill-18" class="st3" points="203.3,14.6 206.7,42.5 218.1,41.1 219,48.6 198.4,51.1 194.1,15.7 		"/>
		<polygon id="Fill-20" class="st3" points="3.6,96.5 2,83.3 40.7,78.6 42.3,91.8 30.7,93.2 36.4,139.6 20.8,141.5 15.2,95.1 		"/>
		<path id="Fill-22" class="st3" d="M63.5,116.1c0.4,2.6,0.9,4.7,1.5,6.2s1.2,2.5,2,3.1c0.8,0.5,1.7,0.7,2.9,0.6
			c1.2-0.1,2.1-0.6,2.7-1.3c0.6-0.7,1-1.8,1.2-3.4c0.2-1.6,0.1-3.7-0.1-6.4c-0.2-2.7-0.6-6-1.1-10c-0.5-4-1-7.3-1.4-9.9
			c-0.4-2.6-0.9-4.7-1.5-6.2c-0.6-1.5-1.2-2.5-2-3.1C67,85.2,66,85,64.9,85.1c-1.2,0.1-2.1,0.6-2.7,1.3c-0.6,0.7-1,1.8-1.2,3.4
			c-0.2,1.6-0.1,3.7,0.1,6.4c0.2,2.7,0.6,6,1.1,10C62.6,110.2,63.1,113.5,63.5,116.1 M45.5,93.8c0.2-4,1-7.3,2.4-10
			c1.4-2.7,3.3-4.8,5.9-6.2c2.6-1.5,5.8-2.5,9.8-2.9c3.9-0.5,7.4-0.3,10.2,0.5c2.9,0.8,5.3,2.3,7.3,4.6c2,2.3,3.6,5.3,4.8,9.1
			c1.2,3.8,2.1,8.5,2.8,14.1c0.7,5.6,0.9,10.3,0.7,14.3c-0.2,4-1,7.4-2.4,10c-1.4,2.7-3.3,4.7-5.9,6.1c-2.6,1.4-5.9,2.3-9.8,2.8
			c-3.9,0.5-7.3,0.4-10.2-0.4c-2.9-0.7-5.3-2.2-7.2-4.5c-2-2.3-3.6-5.3-4.8-9.1c-1.2-3.8-2.1-8.5-2.8-14.1
			C45.4,102.6,45.2,97.8,45.5,93.8"/>
		<g>
			<path class="st3" d="M119.7,116.4c-0.3,0.5-0.6,0.8-1,1.1c-0.8,0.5-2,0.9-3.5,1.1l-3.1,0.4l-4.6-37.2l3.1-0.4
				c1.5-0.2,2.7-0.1,3.7,0.2c0.9,0.3,1.7,1.1,2.4,2.4c0.6,1.3,1.2,3.1,1.6,5.6c0.4,2.4,0.9,5.6,1.4,9.6c0.4,3.4,0.7,6.2,0.9,8.5
				l1.2-0.3c0.5-0.1,7.4-2.1,14-9.6c0-0.2,0-0.4-0.1-0.6c-0.5-3.9-1.1-7.6-1.8-11.2c-0.7-3.6-1.9-6.6-3.5-9.2
				c-1.6-2.6-3.7-4.6-6.4-5.9c-2.7-1.3-6.3-1.7-10.8-1.2l-22.5,2.8l7.3,59.5l22.5-2.8c4.5-0.6,7.9-1.8,10.2-3.7
				c1.9-1.6,3.3-3.5,4.3-5.8L119.7,116.4z"/>
			<path class="st3" d="M136.5,108.4c-0.1-1.4-0.2-2.8-0.3-4.2c-4.9,4.5-9.6,6.6-11.9,7.5l-0.1,0.6l11.9,2.6
				C136.5,112.9,136.6,110.7,136.5,108.4z"/>
		</g>
		<polygon id="Fill-34" class="st3" points="208.9,14.1 208.9,13.4 213.6,12.8 213.7,13.5 211.7,13.7 212.4,19 211.6,19.1 
			210.9,13.8 		"/>
		<polygon id="Fill-36" class="st3" points="215.3,12.6 217.8,17.4 219.1,12.1 220.2,12 220.9,17.9 220.1,18 219.5,13.1 219.5,13.1 
			218.3,18.3 217.6,18.3 215.2,13.6 215.1,13.6 215.7,18.6 215,18.7 214.3,12.7 		"/>
		<path id="Fill-32" class="st4" d="M122.3,109.8c0,0,20.5-5.3,26.8-34.4c1.8-8.4,10.1-13.7,18.5-11.9c8.4,1.8,13.7,10.1,11.9,18.5
			c-6.3,29,10.1,42.4,10.1,42.4l-1,4.4l-27.4-6c-0.7,3.4-4.1,5.6-7.6,4.9c-3.4-0.7-5.6-4.1-4.9-7.6l-27.4-6L122.3,109.8z"/>
		<path class="st3" d="M219.6,56.6l-17,2.1l-3.3,21.5l-0.2,0l-8.4-20L174,62.2l1.3,2.3c3.7,2.9,6.1,7.2,6.7,11.9l11.3,20l2.9,23.4
			l15.5-1.9l-2.9-23.4L219.6,56.6z"/>
	</g>
</g>
</svg>
