<?xml version="1.0" encoding="utf-8"?>
<!-- Generator: Adobe Illustrator 23.0.1, SVG Export Plug-In . SVG Version: 6.00 Build 0)  -->
<svg version="1.1" id="Layer_1" xmlns="http://www.w3.org/2000/svg" xmlns:xlink="http://www.w3.org/1999/xlink" x="0px" y="0px"
	 viewBox="0 0 214 213" style="enable-background:new 0 0 214 213;" xml:space="preserve">
<style type="text/css">
	.st0{fill:#F0FAFF;stroke:#6FCCE0;stroke-width:2.6446;}
	.st1{fill:#6FCCE0;}
	.st2{font-family:'OpenSans';}
	.st3{font-size:91.5822px;}
	.st4{clip-path:url(#SVGID_2_);fill:#32364E;}
	.st5{clip-path:url(#SVGID_2_);fill:#FFFFFF;}
</style>
<title>bank</title>
<desc>Created with Sketch.</desc>
<g id="Page-1">
	<g id="payment">
		<path id="Oval-1" class="st0" d="M107.5,203c52.6,0,95.5-42.9,95.5-95.5S160.1,12,107.5,12S12,54.9,12,107.5S54.9,203,107.5,203z"
			/>
		<text transform="matrix(1 0 0 1 82.0332 141.2921)" class="st1 st2 st3">$</text>
	</g>
</g>
<g>
	<defs>
		<rect id="SVGID_1_" x="55" y="161.1" width="156" height="42.9"/>
	</defs>
	<clipPath id="SVGID_2_">
		<use xlink:href="#SVGID_1_"  style="overflow:visible;"/>
	</clipPath>
	<path class="st4" d="M61.3,161.1h143.4c3.5,0,6.3,2.8,6.3,6.3v30.4c0,3.5-2.8,6.3-6.3,6.3H61.3c-3.5,0-6.3-2.8-6.3-6.3v-30.4
		C55,163.9,57.8,161.1,61.3,161.1"/>
	<path class="st5" d="M129.8,188.9h-1.5l1.2-2.9l-2.4-6h1.6l1.5,4.1l1.5-4.1h1.6L129.8,188.9z M123.9,186.4c-0.5,0-1.1-0.2-1.6-0.6
		v0.4h-1.6v-8.9h1.6v3.1c0.5-0.4,1-0.6,1.6-0.6c1.7,0,2.8,1.3,2.8,3.2C126.7,185.1,125.5,186.4,123.9,186.4 M123.5,181.3
		c-0.4,0-0.9,0.2-1.2,0.6v2.6c0.4,0.4,0.8,0.6,1.2,0.6c0.9,0,1.5-0.8,1.5-1.9C125.1,182,124.4,181.3,123.5,181.3 M114.3,185.8
		c-0.5,0.4-1,0.6-1.6,0.6c-1.6,0-2.8-1.3-2.8-3.2c0-1.9,1.1-3.2,2.8-3.2c0.5,0,1.1,0.2,1.6,0.6v-3.1h1.6v8.9h-1.6V185.8z
		 M114.3,181.8c-0.4-0.4-0.8-0.6-1.2-0.6c-0.9,0-1.5,0.8-1.5,1.9c0,1.1,0.6,1.9,1.5,1.9c0.4,0,0.9-0.2,1.2-0.6V181.8z M104.9,183.6
		c0.1,0.9,0.8,1.6,1.9,1.6c0.6,0,1.2-0.2,1.8-0.6v1.3c-0.7,0.3-1.4,0.5-2.1,0.5c-1.9,0-3.2-1.4-3.2-3.3c0-1.9,1.3-3.2,3-3.2
		c1.6,0,2.7,1.3,2.7,3.1c0,0.2,0,0.4,0,0.6H104.9z M106.4,181.1c-0.8,0-1.4,0.6-1.4,1.4h2.7C107.6,181.7,107.1,181.1,106.4,181.1
		 M100.8,182.1v4.1h-1.6v-6.2h1.6v0.6c0.4-0.5,1-0.8,1.5-0.8c0.2,0,0.3,0,0.5,0.1v1.4c-0.2-0.1-0.4-0.1-0.6-0.1
		C101.7,181.3,101.2,181.6,100.8,182.1 M93.7,183.6c0.1,0.9,0.8,1.6,1.9,1.6c0.6,0,1.2-0.2,1.8-0.6v1.3c-0.7,0.3-1.4,0.5-2.1,0.5
		c-1.9,0-3.2-1.4-3.2-3.3c0-1.9,1.3-3.2,3-3.2c1.6,0,2.7,1.3,2.7,3.1c0,0.2,0,0.4,0,0.6H93.7z M95.1,181.1c-0.8,0-1.4,0.6-1.4,1.4
		h2.7C96.4,181.7,95.8,181.1,95.1,181.1 M88.2,186.2l-1.3-4.2l-1.2,4.2h-1.4l-2.1-6.2h1.6l1.2,4.2l1.2-4.2h1.4l1.2,4.2l1.2-4.2h1.6
		l-2.1,6.2H88.2z M78.5,186.4c-1.9,0-3.2-1.3-3.2-3.2c0-1.9,1.3-3.2,3.2-3.2s3.2,1.3,3.2,3.2C81.7,185,80.4,186.4,78.5,186.4
		 M78.5,181.2c-0.9,0-1.6,0.8-1.6,1.9s0.6,1.9,1.6,1.9c0.9,0,1.6-0.8,1.6-1.9S79.4,181.2,78.5,181.2 M71.6,183.2h-1.4v3h-1.6v-8.5h3
		c1.7,0,3,1.1,3,2.7C74.6,182.1,73.3,183.2,71.6,183.2 M71.4,179h-1.2v2.9h1.2c0.9,0,1.6-0.6,1.6-1.4C72.9,179.6,72.3,179,71.4,179"
		/>
	<path class="st5" d="M198.3,184h-7.6c0.2,1.8,1.5,2.4,3,2.4c1.5,0,2.8-0.3,3.8-0.9v3.1c-1.1,0.6-2.4,1-4.3,1c-3.8,0-6.4-2.4-6.4-7
		c0-3.9,2.2-7.1,5.9-7.1c3.7,0,5.6,3.1,5.6,7.1C198.3,182.9,198.3,183.8,198.3,184 M192.7,178.6c-1,0-2,0.7-2,2.5h4
		C194.6,179.4,193.6,178.6,192.7,178.6 M180.6,189.6c-1.4,0-2.2-0.6-2.7-1l0,4.4l-3.9,0.8l0-18.1h3.4l0.2,1c0.5-0.5,1.5-1.2,3-1.2
		c2.7,0,5.3,2.5,5.3,7C185.9,187.4,183.4,189.6,180.6,189.6 M179.7,178.9c-0.9,0-1.4,0.3-1.9,0.8l0,5.8c0.4,0.4,0.9,0.7,1.8,0.7
		c1.4,0,2.4-1.6,2.4-3.6C182.1,180.5,181.1,178.9,179.7,178.9 M168.5,175.7h3.9v13.6h-3.9V175.7z M168.5,171.4l3.9-0.8v3.2l-3.9,0.8
		V171.4z M164.5,180.1v9.2h-3.9v-13.6h3.4l0.2,1.1c0.9-1.7,2.7-1.3,3.2-1.1v3.6C167,179.1,165.4,178.9,164.5,180.1 M156.3,184.5
		c0,2.3,2.4,1.6,2.9,1.4v3.2c-0.5,0.3-1.5,0.5-2.7,0.5c-2.3,0-4-1.7-4-4l0-12.4l3.8-0.8l0,3.4h2.9v3.3h-2.9V184.5z M151.6,185.2
		c0,2.8-2.2,4.4-5.4,4.4c-1.3,0-2.8-0.3-4.2-0.9V185c1.3,0.7,3,1.2,4.2,1.2c0.9,0,1.5-0.2,1.5-0.9c0-1.9-5.9-1.2-5.9-5.4
		c0-2.7,2.1-4.4,5.2-4.4c1.3,0,2.6,0.2,3.9,0.7v3.7c-1.2-0.6-2.7-1-3.9-1c-0.8,0-1.3,0.2-1.3,0.8
		C145.7,181.4,151.6,180.6,151.6,185.2"/>
</g>
</svg>
