<?xml version="1.0" encoding="utf-8"?>
<!-- Generator: Adobe Illustrator 23.0.1, SVG Export Plug-In . SVG Version: 6.00 Build 0)  -->
<svg version="1.1" id="Layer_1" xmlns="http://www.w3.org/2000/svg" xmlns:xlink="http://www.w3.org/1999/xlink" x="0px" y="0px"
	 viewBox="0 0 214 213" style="enable-background:new 0 0 214 213;" xml:space="preserve">
<style type="text/css">
	.st0{fill:#F0FAFF;stroke:#6FCCE0;stroke-width:2.6446;}
	.st1{fill:#FFFFFF;}
	.st2{fill:none;stroke:#6FCCE0;stroke-width:1.4692;stroke-linecap:square;}
	.st3{fill:#6FCCE0;}
</style>
<title>bank</title>
<desc>Created with Sketch.</desc>
<g id="Page-1_1_">
	<g id="calendar">
		<path id="Oval-1_1_" class="st0" d="M107.5,203c52.6,0,95.5-42.9,95.5-95.5S160.1,12,107.5,12S12,54.9,12,107.5
			S54.9,203,107.5,203z"/>
		<rect x="75.2" y="90.2" class="st1" width="63.8" height="48.8"/>
		<path id="Line" class="st2" d="M75.2,114.8h61.7"/>
		<path id="Line_1_" class="st2" d="M92.5,136.9V92.8"/>
		<path id="Line_2_" class="st2" d="M121.9,137.2V93.1"/>
		<path id="Line_3_" class="st2" d="M107.5,136.9V92.8"/>
		<path id="Line_4_" class="st2" d="M75.2,103.1h61.7"/>
		<path id="Line_5_" class="st2" d="M75.2,126.6h61.7"/>
		<path class="st3" d="M135.1,75.5h-7.9v7.9c0,2.6-2.1,5-5,5h-0.6c-1.2,0-2.4-0.6-3.5-1.5c-0.9-0.9-1.5-2.4-1.5-3.5v-7.9H97.5v7.9
			c0,2.6-2.1,5-5,5h-0.6c-1.2,0-2.4-0.6-3.5-1.5c-0.9-0.9-1.5-2.4-1.5-3.5v-7.9h-7.6c-3.5,0-6.2,2.9-6.2,6.5l-0.3,52.3
			c0,3.5,2.6,6.5,6.2,6.5l55.8-0.3c3.5,0,6.2-2.9,6.2-6.5l0.3-52.3C141.3,78.4,138.6,75.5,135.1,75.5z M137.5,131.9
			c0,2.6-2.1,4.7-4.7,4.7l-51.4,0.3c-2.6,0-4.7-2.1-4.7-4.7l0.3-40l60.5-0.3V131.9z"/>
		<path id="Fill-24_1_" class="st3" d="M92.5,86.3h-0.6c-1.5,0-2.6-1.2-2.6-2.6V72.2c0-1.5,1.2-2.6,2.6-2.6h0.6
			c1.5,0,2.6,1.2,2.6,2.6v11.5C95.5,85.2,94,86.3,92.5,86.3"/>
		<path id="Fill-26_1_" class="st3" d="M122.2,86.3h-0.6c-1.5,0-2.6-1.2-2.6-2.6V72.2c0-1.5,1.2-2.6,2.6-2.6h0.6
			c1.5,0,2.6,1.2,2.6,2.6v11.5C124.8,85.2,123.7,86.3,122.2,86.3"/>
	</g>
</g>
</svg>
