<?xml version="1.0" encoding="utf-8"?>
<!-- Generator: Adobe Illustrator 18.1.1, SVG Export Plug-In . SVG Version: 6.00 Build 0)  -->
<svg version="1.1" id="Layer_1" xmlns:sketch="http://www.bohemiancoding.com/sketch/ns"
	 xmlns="http://www.w3.org/2000/svg" xmlns:xlink="http://www.w3.org/1999/xlink" x="0px" y="0px" viewBox="-263 356 85 81"
	 enable-background="new -263 356 85 81" xml:space="preserve">
<title>event</title>
<desc>Created with Sketch.</desc>
<g id="Page-1" sketch:type="MSPage">
	<g id="event" sketch:type="MSArtboardGroup">
		<path id="Oval-1" sketch:type="MSShapeGroup" fill="#F0FAFF" stroke="#6FCCE0" stroke-width="0.9" d="M-220.5,429
			c17.9,0,32.5-14.6,32.5-32.5s-14.6-32.5-32.5-32.5s-32.5,14.6-32.5,32.5S-238.4,429-220.5,429z"/>
		<g id="placeholder" transform="translate(33.000000, 28.000000)" sketch:type="MSLayerGroup">
			<g id="Capa_1" sketch:type="MSShapeGroup">
				<g id="Group">
					<path id="Shape" fill="#6FCCE0" d="M-247.4,358.8c-1.7-1.8-4-2.8-6.4-2.8c-2.4,0-4.7,1-6.4,2.8c-3.2,3.3-3.6,9.6-0.9,13.5
						l7.3,11.1l7.3-11.1C-243.9,368.4-244.3,362.1-247.4,358.8L-247.4,358.8z"/>
					<path id="Shape_1_" fill="#FFFFFF" d="M-253.8,363.2c-1.2,0-2.2,1-2.2,2.2c0,1.2,1,2.2,2.2,2.2s2.2-1,2.2-2.2
						C-251.6,364.2-252.6,363.2-253.8,363.2L-253.8,363.2z"/>
				</g>
			</g>
		</g>
	</g>
</g>
</svg>
