<?xml version="1.0" encoding="utf-8"?>
<!-- Generator: Adobe Illustrator 23.0.1, SVG Export Plug-In . SVG Version: 6.00 Build 0)  -->
<svg version="1.1" id="Layer_1" xmlns="http://www.w3.org/2000/svg" xmlns:xlink="http://www.w3.org/1999/xlink" x="0px" y="0px"
	 viewBox="0 0 214 213" style="enable-background:new 0 0 214 213;" xml:space="preserve">
<style type="text/css">
	.st0{fill:#F0FAFF;stroke:#6FCCE0;stroke-width:2.6446;}
	.st1{fill:#B2B2B2;}
	.st2{fill:#6FCCE0;}
	.st3{fill:none;stroke:#FFFFFF;stroke-width:2.9385;}
</style>
<title>bank</title>
<desc>Created with Sketch.</desc>
<g id="Page-1">
	<g id="homework">
		<path id="Oval-1" class="st0" d="M106.5,203c52.6,0,95.5-42.9,95.5-95.5S159.1,12,106.5,12S11,54.9,11,107.5S53.9,203,106.5,203z"
			/>
		<g id="Group" transform="translate(27.000000, 27.000000)">
			<path id="Shape_4_" class="st1" d="M79.5,104.6V59.3c0-0.9-0.6-1.5-1.5-1.5s-1.5,0.6-1.5,1.5v45.3c0,0.9,0.6,1.5,1.5,1.5
				S79.5,105.5,79.5,104.6L79.5,104.6z"/>
			<path id="Shape_3_" class="st2" d="M110.1,44.9c-5-1.8-10.6-4.1-16.7-4.1c-6.8,0-10.9,3.2-13.2,5.9c-0.9,0.9-1.5,2.1-2.1,2.9
				c-0.6-0.9-1.2-1.8-2.1-2.9c-2.4-2.6-6.5-5.9-13.2-5.9c-5.9,0-11.5,2.1-16.7,4.1c-3.8,1.5-7.6,2.9-10.6,2.9
				c-0.9,0-1.5,0.6-1.5,1.5v61.1c0,0.9,0.6,1.5,1.5,1.5c3.5,0,7.3-1.5,11.8-2.9c4.7-1.8,10.3-3.8,15.6-3.8c4.7,0,8.5,1.8,11.2,5
				c0.6,0.6,1.5,0.6,2.1,0c0.6-0.6,3.5-0.6,4.1,0c0.6,0.6,1.5,0.6,2.1,0c2.6-3.2,6.5-5,11.2-5c5.3,0,10.9,2.1,15.6,3.8
				c4.1,1.5,8.2,2.9,11.8,2.9c0.9,0,1.5-0.6,1.5-1.5V49.4C122.1,48.5,113.9,46.4,110.1,44.9z"/>
			<path id="Shape_2_" class="st2" d="M120.6,114.9c-2.9,0-6.8-1.5-10.6-2.9c-5-1.8-10.6-4.1-16.7-4.1c-6.5,0-10.6,2.9-12.9,5.3h-5
				c-2.4-2.6-6.5-5.3-12.9-5.3c-5.9,0-11.5,2.1-16.7,4.1c-3.8,1.5-7.6,2.9-10.6,2.9c-0.9,0-1.5,0.6-1.5,1.5c0,0.9,0.6,1.5,1.5,1.5
				c3.5,0,7.3-1.5,11.8-2.9c4.7-1.8,10.3-3.8,15.6-3.8c4.7,0,8.5,1.8,11.2,5c0.3,0.3,0.6,0.6,1.2,0.6H81c0.3,0,0.9-0.3,1.2-0.6
				c2.6-3.2,6.5-5,11.2-5c5.3,0,10.9,2.1,15.6,3.8c4.1,1.5,8.2,2.9,11.8,2.9c0.9,0,1.5-0.6,1.5-1.5
				C122.1,115.8,121.5,114.9,120.6,114.9L120.6,114.9z"/>
			<path id="Path-474" class="st3" d="M78,45.8v66.1"/>
		</g>
	</g>
</g>
</svg>
