<svg id="Layer_1" data-name="Layer 1" xmlns="http://www.w3.org/2000/svg" viewBox="0 0 193.64 193.64"><defs><style>.cls-1{fill:#f0faff;stroke:#6fcce0;stroke-width:2.64px;}.cls-2{fill:#fff;}.cls-3{fill:#6fcce0;}</style></defs><title>newsletter</title><path id="Oval-1" class="cls-1" d="M107.5,203A95.5,95.5,0,1,0,12,107.5,95.68,95.68,0,0,0,107.5,203Z" transform="translate(-10.68 -10.68)"/><rect class="cls-2" x="68.61" y="63.91" width="59.36" height="70.52"/><g id="Page-1"><g id="newsletter"><path class="cls-3" d="M141.29,70.77H76.65a2.77,2.77,0,0,0-2.94,2.94v73.46a2.94,2.94,0,0,0,2.94,2.94h64.64a2.78,2.78,0,0,0,2.94-2.94V73.71A2.77,2.77,0,0,0,141.29,70.77Zm-34.67,72.58H84.29V95.75h22.33Zm27,0H111.32V95.75h22.33Zm0-52.31H84V79.58h49.66Z" transform="translate(-10.68 -10.68)"/></g></g></svg>