<?xml version="1.0" encoding="utf-8"?>
<!-- Generator: Adobe Illustrator 23.0.1, SVG Export Plug-In . SVG Version: 6.00 Build 0)  -->
<svg version="1.1" id="Layer_1" xmlns="http://www.w3.org/2000/svg" xmlns:xlink="http://www.w3.org/1999/xlink" x="0px" y="0px"
	 viewBox="0 0 214 213" style="enable-background:new 0 0 214 213;" xml:space="preserve">
<style type="text/css">
	.st0{fill:#F0FAFF;stroke:#6FCCE0;stroke-width:2.6446;}
	.st1{fill:#6FCCE0;}
</style>
<title>bank</title>
<desc>Created with Sketch.</desc>
<g id="Page-1">
	<g id="notification">
		<path id="Oval-1" class="st0" d="M106.5,203c52.6,0,95.5-42.9,95.5-95.5S159.1,12,106.5,12S11,54.9,11,107.5S53.9,203,106.5,203z"
			/>
		<path id="Fill-1" class="st1" d="M65.7,136.6c0,0,23.2-12,23.2-49.1c0-10.6,8.5-19.4,19.1-19.4s19.1,8.5,19.1,19.4
			c0,37,23.5,49.1,23.5,49.1v5.6h-34.7c0,4.4-3.5,7.9-7.9,7.9s-7.9-3.5-7.9-7.9H65.4L65.7,136.6z"/>
	</g>
</g>
</svg>
