<?xml version="1.0" encoding="utf-8"?>
<!-- Generator: Adobe Illustrator 23.0.1, SVG Export Plug-In . SVG Version: 6.00 Build 0)  -->
<svg version="1.1" id="Layer_1" xmlns="http://www.w3.org/2000/svg" xmlns:xlink="http://www.w3.org/1999/xlink" x="0px" y="0px"
	 viewBox="0 0 214 213" style="enable-background:new 0 0 214 213;" xml:space="preserve">
<style type="text/css">
	.st0{fill:#F0FAFF;stroke:#6FCCE0;stroke-width:2.6446;}
	.st1{fill:#6FCCE0;}
	.st2{fill:none;stroke:#FFFFFF;stroke-width:2.6446;}
	.st3{fill:none;}
</style>
<title>bank</title>
<desc>Created with Sketch.</desc>
<g id="Page-1_1_">
	<g id="sign">
		<path id="Oval-1_1_" class="st0" d="M106.5,203c52.6,0,95.5-42.9,95.5-95.5S159.1,12,106.5,12S11,54.9,11,107.5
			S53.9,203,106.5,203z"/>
		<path id="Shape" class="st1" d="M151.8,140.1H63.6c-1.5,0-2.6,0.9-2.6,2.1c0,1.2,1.2,1.8,2.6,1.8h88.2c1.5,0,2.6-0.9,2.6-1.8
			C154.7,140.7,153.5,140.1,151.8,140.1L151.8,140.1z"/>
		<path id="Shape_1_" class="st1" d="M100.3,93.7l8.2,21.5c0.3,0.9,1.2,1.5,1.8,1.8l40.3,13.2c0.3,0,0.6,0,0.9,0
			c0.9,0,1.5-0.3,2.1-0.9c0.9-0.9,1.2-2.1,0.9-3.2l-12.6-41.7c-0.3-0.9-0.9-1.5-1.8-2.1l-20.6-8.5l-6.8-7.9
			c-0.6-0.6-1.5-1.2-2.1-1.2c-0.9,0-1.8,0.3-2.4,0.9L92.1,81.9c-0.6,0.6-0.9,1.5-0.9,2.4c0,0.9,0.3,1.8,1.2,2.4L100.3,93.7z"/>
		<g id="Path-472">
			<g>
				<path id="path-1" class="st2" d="M156.5,131l-29.1-29.1"/>
			</g>
			<g>
				<path id="path-1_1_" class="st3" d="M156.5,131l-29.1-29.1"/>
			</g>
		</g>
	</g>
</g>
</svg>
