<?xml version="1.0" encoding="utf-8"?>
<!DOCTYPE svg PUBLIC "-//W3C//DTD SVG 1.1//EN" "http://www.w3.org/Graphics/SVG/1.1/DTD/svg11.dtd">
<svg version="1.1" id="Layer_1" xmlns="http://www.w3.org/2000/svg" xmlns:xlink="http://www.w3.org/1999/xlink" x="0px" y="0px"
	 width="228.24px" height="137.04px" viewBox="0 0 228.24 137.04" enable-background="new 0 0 228.24 137.04" xml:space="preserve">
<g>
	<path fill="#1F3160" d="M221.521,0H61.919c3.84,2.399,6.96,5.52,9.12,9.359H218.64v118.32H192.24V126c0-3.602-2.88-6.24-6.24-6.24
		h-18.96c-3.6,0-6.239,2.88-6.239,6.24v1.68H79.919v2.88c0,2.399-0.479,4.562-1.68,6.479h143.28c3.601,0,6.721-3.121,6.721-6.721
		V6.479C228.24,2.88,225.12,0,221.521,0z"/>
	<circle fill="#6ECCE0" cx="48.72" cy="21.84" r="20.88"/>
	<path fill="#6ECCE0" d="M84.959,88.319l2.64,3.602c0.96,1.199,2.16,1.68,3.84,1.438c1.439-0.239,27.839-3.601,36.96-4.8
		c1.68-0.24,3.119-1.92,2.879-3.6l-0.479-5.041c-0.239-1.92-1.68-3.119-3.6-3.119l-31.92,1.438c0,0-11.28-18.72-12.72-20.88
		c-1.2-1.68-4.561-6.479-5.521-7.68l0,0l0,0c-0.72-0.72-1.68-1.2-2.64-1.681l-10.8-4.08C59.28,46.8,54,48.479,48.48,48.479
		s-10.8-1.68-15.12-4.561l-10.8,4.08c-2.4,0.961-4.32,2.881-5.28,5.521L4.56,83.999C3.84,85.68,3.36,87.6,3.12,89.52L0,126.959
		c0,1.439,0.96,2.879,2.4,2.879l7.2,0.48c1.439,0.24,2.64-0.96,2.88-2.4l5.04-37.198l7.68-15.841l-2.16,55.681
		c-0.239,3.601,2.641,6.479,6.24,6.479h38.16c3.6,0,6.24-2.881,6.24-6.479L72,70.799L84.959,88.319z"/>
</g>
</svg>
