<?xml version="1.0" encoding="utf-8"?>
<!DOCTYPE svg PUBLIC "-//W3C//DTD SVG 1.1//EN" "http://www.w3.org/Graphics/SVG/1.1/DTD/svg11.dtd">
<svg version="1.1" id="Layer_1" xmlns="http://www.w3.org/2000/svg" xmlns:xlink="http://www.w3.org/1999/xlink" x="0px" y="0px"
	 width="100%" viewBox="0 0 237.63 314.17" enable-background="new 0 0 237.63 314.17" xml:space="preserve">
<g>
	<defs>
		<path id="SVGID_1_" d="M0,2.669C0,1.195,1.194,0,2.668,0h232.292c1.474,0,2.669,1.201,2.669,2.669v308.833
			c0,1.474-1.194,2.668-2.669,2.668H2.668c-1.474,0-2.668-1.2-2.668-2.668V2.669z"/>
	</defs>
	<clipPath id="SVGID_2_">
		<use xlink:href="#SVGID_1_"  overflow="visible"/>
	</clipPath>
	<g clip-path="url(#SVGID_2_)">
		<defs>
			<rect id="SVGID_3_" x="-535.78" y="-430.76" width="1281.6" height="976"/>
		</defs>
		<clipPath id="SVGID_4_">
			<use xlink:href="#SVGID_3_"  overflow="visible"/>
		</clipPath>
		<path clip-path="url(#SVGID_4_)" fill="none" d="M0,2.669C0,1.195,1.194,0,2.668,0h232.292c1.474,0,2.669,1.201,2.669,2.669
			v308.833c0,1.474-1.194,2.668-2.669,2.668H2.668c-1.474,0-2.668-1.2-2.668-2.668V2.669z"/>
	</g>
</g>
<g>
	<defs>
		<rect id="SVGID_5_" x="87.841" y="135.871" width="4.601" height="63.154"/>
	</defs>
	<clipPath id="SVGID_6_">
		<use xlink:href="#SVGID_5_"  overflow="visible"/>
	</clipPath>
	<g clip-path="url(#SVGID_6_)">
		<defs>
			<rect id="SVGID_7_" x="-535.78" y="-430.76" width="1281.6" height="976"/>
		</defs>
		<clipPath id="SVGID_8_">
			<use xlink:href="#SVGID_7_"  overflow="visible"/>
		</clipPath>
		<rect x="83.391" y="131.421" clip-path="url(#SVGID_8_)" fill="#F6F6F6" width="13.501" height="72.055"/>
	</g>
</g>
<g>
	<defs>
		<rect id="SVGID_9_" x="145.229" y="116.019" width="4.601" height="83.007"/>
	</defs>
	<clipPath id="SVGID_10_">
		<use xlink:href="#SVGID_9_"  overflow="visible"/>
	</clipPath>
	<g clip-path="url(#SVGID_10_)">
		<defs>
			<rect id="SVGID_11_" x="-535.78" y="-430.76" width="1281.6" height="976"/>
		</defs>
		<clipPath id="SVGID_12_">
			<use xlink:href="#SVGID_11_"  overflow="visible"/>
		</clipPath>
		<rect x="140.779" y="111.568" clip-path="url(#SVGID_12_)" fill="#F6F6F6" width="13.501" height="91.907"/>
	</g>
</g>
<g>
	<defs>
		<rect id="SVGID_13_" x="87.841" y="194.061" width="61.989" height="4.965"/>
	</defs>
	<clipPath id="SVGID_14_">
		<use xlink:href="#SVGID_13_"  overflow="visible"/>
	</clipPath>
	<g clip-path="url(#SVGID_14_)">
		<defs>
			<rect id="SVGID_15_" x="-535.78" y="-430.76" width="1281.6" height="976"/>
		</defs>
		<clipPath id="SVGID_16_">
			<use xlink:href="#SVGID_15_"  overflow="visible"/>
		</clipPath>
		<rect x="83.391" y="189.61" clip-path="url(#SVGID_16_)" fill="#F6F6F6" width="70.89" height="13.865"/>
	</g>
</g>
<g>
	<defs>
		<rect id="SVGID_17_" x="101.622" y="115.921" width="46.962" height="4.966"/>
	</defs>
	<clipPath id="SVGID_18_">
		<use xlink:href="#SVGID_17_"  overflow="visible"/>
	</clipPath>
	<g clip-path="url(#SVGID_18_)">
		<defs>
			<rect id="SVGID_19_" x="-535.78" y="-430.76" width="1281.6" height="976"/>
		</defs>
		<clipPath id="SVGID_20_">
			<use xlink:href="#SVGID_19_"  overflow="visible"/>
		</clipPath>
		<rect x="97.172" y="111.472" clip-path="url(#SVGID_20_)" fill="#F6F6F6" width="55.862" height="13.864"/>
	</g>
</g>
<g>
	<defs>
		<rect id="SVGID_21_" x="101.62" y="115.921" width="4.601" height="19.95"/>
	</defs>
	<clipPath id="SVGID_22_">
		<use xlink:href="#SVGID_21_"  overflow="visible"/>
	</clipPath>
	<g clip-path="url(#SVGID_22_)">
		<defs>
			<rect id="SVGID_23_" x="-535.78" y="-430.76" width="1281.6" height="976"/>
		</defs>
		<clipPath id="SVGID_24_">
			<use xlink:href="#SVGID_23_"  overflow="visible"/>
		</clipPath>
		<rect x="97.17" y="111.472" clip-path="url(#SVGID_24_)" fill="#F6F6F6" width="13.501" height="28.85"/>
	</g>
</g>
<g>
	<defs>
		<rect id="SVGID_25_" x="87.841" y="130.906" width="18.38" height="4.965"/>
	</defs>
	<clipPath id="SVGID_26_">
		<use xlink:href="#SVGID_25_"  overflow="visible"/>
	</clipPath>
	<g clip-path="url(#SVGID_26_)">
		<defs>
			<rect id="SVGID_27_" x="-535.78" y="-430.76" width="1281.6" height="976"/>
		</defs>
		<clipPath id="SVGID_28_">
			<use xlink:href="#SVGID_27_"  overflow="visible"/>
		</clipPath>
		<rect x="83.391" y="126.456" clip-path="url(#SVGID_28_)" fill="#F6F6F6" width="27.28" height="13.865"/>
	</g>
</g>
<g>
	<defs>
		<polygon id="SVGID_29_" points="104.973,119.433 91.093,134.41 87.84,130.9 101.72,115.922 		"/>
	</defs>
	<clipPath id="SVGID_30_">
		<use xlink:href="#SVGID_29_"  overflow="visible"/>
	</clipPath>
	<g clip-path="url(#SVGID_30_)">
		<defs>
			<rect id="SVGID_31_" x="-535.78" y="-430.76" width="1281.6" height="976"/>
		</defs>
		<clipPath id="SVGID_32_">
			<use xlink:href="#SVGID_31_"  overflow="visible"/>
		</clipPath>
		<rect x="83.39" y="111.472" clip-path="url(#SVGID_32_)" fill="#F6F6F6" width="26.033" height="27.389"/>
	</g>
</g>
<g>
	<defs>
		<rect id="SVGID_33_" x="97.232" y="182.911" width="43.206" height="4.965"/>
	</defs>
	<clipPath id="SVGID_34_">
		<use xlink:href="#SVGID_33_"  overflow="visible"/>
	</clipPath>
	<g clip-path="url(#SVGID_34_)">
		<defs>
			<rect id="SVGID_35_" x="-535.78" y="-430.76" width="1281.6" height="976"/>
		</defs>
		<clipPath id="SVGID_36_">
			<use xlink:href="#SVGID_35_"  overflow="visible"/>
		</clipPath>
		<rect x="92.782" y="178.461" clip-path="url(#SVGID_36_)" fill="#F6F6F6" width="52.106" height="13.865"/>
	</g>
</g>
<g>
	<defs>
		<rect id="SVGID_37_" x="97.232" y="169.734" width="43.206" height="4.965"/>
	</defs>
	<clipPath id="SVGID_38_">
		<use xlink:href="#SVGID_37_"  overflow="visible"/>
	</clipPath>
	<g clip-path="url(#SVGID_38_)">
		<defs>
			<rect id="SVGID_39_" x="-535.78" y="-430.76" width="1281.6" height="976"/>
		</defs>
		<clipPath id="SVGID_40_">
			<use xlink:href="#SVGID_39_"  overflow="visible"/>
		</clipPath>
		<rect x="92.782" y="165.284" clip-path="url(#SVGID_40_)" fill="#F6F6F6" width="52.106" height="13.865"/>
	</g>
</g>
<g>
	<defs>
		<rect id="SVGID_41_" x="97.232" y="156.561" width="43.206" height="4.965"/>
	</defs>
	<clipPath id="SVGID_42_">
		<use xlink:href="#SVGID_41_"  overflow="visible"/>
	</clipPath>
	<g clip-path="url(#SVGID_42_)">
		<defs>
			<rect id="SVGID_43_" x="-535.78" y="-430.76" width="1281.6" height="976"/>
		</defs>
		<clipPath id="SVGID_44_">
			<use xlink:href="#SVGID_43_"  overflow="visible"/>
		</clipPath>
		<rect x="92.782" y="152.11" clip-path="url(#SVGID_44_)" fill="#F6F6F6" width="52.106" height="13.865"/>
	</g>
</g>
<g>
	<defs>
		<rect id="SVGID_45_" x="97.232" y="143.384" width="43.206" height="4.965"/>
	</defs>
	<clipPath id="SVGID_46_">
		<use xlink:href="#SVGID_45_"  overflow="visible"/>
	</clipPath>
	<g clip-path="url(#SVGID_46_)">
		<defs>
			<rect id="SVGID_47_" x="-535.78" y="-430.76" width="1281.6" height="976"/>
		</defs>
		<clipPath id="SVGID_48_">
			<use xlink:href="#SVGID_47_"  overflow="visible"/>
		</clipPath>
		<rect x="92.782" y="138.935" clip-path="url(#SVGID_48_)" fill="#F6F6F6" width="52.106" height="13.864"/>
	</g>
</g>
<g>
	<defs>
		<rect id="SVGID_49_" x="111.322" y="130.208" width="29.116" height="4.965"/>
	</defs>
	<clipPath id="SVGID_50_">
		<use xlink:href="#SVGID_49_"  overflow="visible"/>
	</clipPath>
	<g clip-path="url(#SVGID_50_)">
		<defs>
			<rect id="SVGID_51_" x="-535.78" y="-430.76" width="1281.6" height="976"/>
		</defs>
		<clipPath id="SVGID_52_">
			<use xlink:href="#SVGID_51_"  overflow="visible"/>
		</clipPath>
		<rect x="106.872" y="125.758" clip-path="url(#SVGID_52_)" fill="#F6F6F6" width="38.017" height="13.864"/>
	</g>
</g>
</svg>
