<?xml version="1.0" encoding="utf-8"?>
<svg version="1.1" id="Layer_1" xmlns="http://www.w3.org/2000/svg" xmlns:xlink="http://www.w3.org/1999/xlink" x="0px" y="0px"
	 viewBox="0 0 32 32" style="enable-background:new 0 0 32 32;" xml:space="preserve">
<style type="text/css">
	.st0{fill:#70CDE0;}
</style>
<g>
	<path class="st0" d="M16.4,12.2c1.2,0,1.7-0.6,1.7-1.7c0-1.2-0.6-1.8-1.7-1.8s-1.7,0.6-1.7,1.8C14.6,11.6,15.2,12.2,16.4,12.2z"/>
	<path class="st0" d="M18.9,12.9h-5.1c-0.2,0-0.4,0.1-0.6,0.2c-0.2,0.2-0.2,0.3-0.2,0.6v5.1h1.4v6.1h3.9v-6.1h1.4v-5.1
		c0-0.2-0.1-0.4-0.2-0.6C19.3,13,19.1,12.9,18.9,12.9z"/>
	<path class="st0" d="M16.4,4.3C9.5,4.3,3.9,9.9,3.9,16.8c0,6.9,5.6,12.5,12.5,12.5c6.9,0,12.5-5.6,12.5-12.5
		C28.8,9.9,23.3,4.3,16.4,4.3z M16.4,27c-5.6,0-10.2-4.6-10.2-10.2c0-5.6,4.6-10.2,10.2-10.2s10.2,4.6,10.2,10.2
		C26.6,22.4,22,27,16.4,27z"/>
</g>
</svg>
