<?xml version="1.0" encoding="utf-8"?>
<!DOCTYPE svg PUBLIC "-//W3C//DTD SVG 1.1//EN" "http://www.w3.org/Graphics/SVG/1.1/DTD/svg11.dtd">
<svg version="1.1" id="Layer_1" xmlns="http://www.w3.org/2000/svg" xmlns:xlink="http://www.w3.org/1999/xlink" x="0px" y="0px"
	 width="391.373px" height="248.946px" viewBox="54.51 129.681 391.373 248.946"
	 enable-background="new 54.51 129.681 391.373 248.946" xml:space="preserve">
<path fill="#6FCCE0" d="M153.921,143.137l-1.96,0.196c-2.353,0.196-4.314,0.392-6.274,0.588c-6.275,0.785-8.824,1.177-13.922-6.667
	c-6.667-10.196-18.039-8.039-23.137-5.294l-1.176,0.588l0.196,1.569l0,0l10.588,87.059l4.118-0.588l-7.255-58.627
	c3.137-1.177,11.373-3.333,16.471,4.51c6.47,10,11.568,9.216,17.843,8.431c1.765-0.196,3.726-0.588,5.882-0.588l2.353-0.196
	L153.921,143.137z"/>
<g>
	<path fill="#1E3161" d="M82.549,193.921l22.941,60.981l-17.451,2.156l-2.941-10.784l-13.137,1.569l-0.196,11.176l-17.255,2.156
		l7.451-64.705L82.549,193.921z M73.529,208.235l-1.176,27.059l9.216-0.98L73.529,208.235L73.529,208.235z"/>
	<path fill="#1E3161" d="M93.529,206.863l-1.765-13.921l40.98-4.902l1.765,13.922l-12.353,1.568l6.079,49.02l-16.471,1.961
		l-6.078-49.02L93.529,206.863z"/>
	<path fill="#1E3161" d="M181.373,198.627c-0.196-1.961-0.784-3.333-1.765-4.706c-0.98-1.176-2.157-1.765-3.726-1.568
		c-1.765,0.196-2.941,0.98-3.726,2.157c-0.784,1.177-0.98,2.549-0.784,4.118c0.196,1.961,0.98,3.726,2.549,4.51
		c1.569,0.98,3.137,1.961,5.294,2.549c2.157,0.588,4.313,1.176,6.667,1.96c2.353,0.588,4.706,1.569,6.863,2.745
		s4.118,2.941,5.686,5.098c1.569,2.157,2.745,5.294,3.138,9.02c0.784,6.667-0.588,11.765-3.922,15.294
		c-3.529,3.53-8.823,5.687-16.078,6.667c-3.333,0.392-6.471,0.588-9.216,0.196c-2.745-0.196-4.902-0.98-7.059-2.157
		c-2.157-1.176-3.529-2.745-4.706-4.902c-1.177-2.157-1.961-4.902-2.353-8.04v-2.157l15.882-1.96l0.196,1.568
		c0.196,2.745,0.98,4.51,2.157,5.49c1.176,0.98,2.353,1.373,4.118,1.177c1.765-0.196,2.941-0.98,3.725-2.353
		c0.785-1.373,0.98-2.745,0.785-4.51c-0.196-1.961-0.98-3.726-2.549-4.706c-1.373-0.98-3.137-1.961-5.098-2.549
		c-1.961-0.588-4.118-1.176-6.471-1.96c-2.353-0.588-4.51-1.569-6.667-2.745c-1.96-1.176-3.921-2.745-5.294-4.902
		c-1.568-2.157-2.549-5.098-2.941-8.824c-0.785-6.471,0.196-11.373,3.333-15.294c2.941-3.726,8.04-6.079,14.902-6.863
		c7.059-0.98,12.549,0,16.079,2.745c3.726,2.745,5.882,7.451,6.667,14.118l-15.294,1.96L181.373,198.627z"/>
	<path fill="#1E3161" d="M227.647,188.039c-0.784-1.176-2.157-1.765-3.726-1.568c-1.176,0.196-2.157,0.588-2.745,1.373
		c-0.588,0.588-0.98,1.96-1.176,3.726c-0.196,1.765-0.196,3.921,0.196,6.667c0.196,2.745,0.588,6.274,0.98,10.588
		c0.588,4.118,0.98,7.647,1.569,10.588c0.392,2.745,0.98,4.902,1.569,6.667c0.588,1.568,1.373,2.745,2.157,3.137
		c0.784,0.588,1.96,0.784,3.137,0.588c0.98-0.196,1.765-0.588,2.353-0.98c0.588-0.588,0.98-1.569,1.176-2.745
		c0.196-1.177,0.196-2.745,0.196-4.902c-0.196-1.96-0.196-4.51-0.588-7.451l15.882-1.961l0.588,4.706
		c0.588,4.51,0.392,8.039-0.392,10.98c-0.785,2.941-2.157,5.294-3.922,7.255c-1.765,1.96-3.726,3.137-6.274,4.118
		c-2.549,0.98-4.902,1.568-7.451,1.765c-4.51,0.588-8.431,0.392-11.373-0.196c-3.137-0.784-5.686-2.353-7.451-4.706
		c-1.961-2.353-3.529-5.687-4.51-9.608c-0.98-4.118-1.961-9.02-2.745-14.902c-0.588-5.882-0.98-11.176-0.785-15.294
		c0.196-4.313,0.98-7.843,2.549-10.588c1.568-2.745,3.529-4.902,6.274-6.47c2.745-1.569,6.274-2.549,10.588-2.941
		c3.726-0.392,6.863-0.392,9.608,0.196c2.745,0.588,4.902,1.765,6.667,3.137c1.961,1.568,3.137,3.529,4.313,5.882
		c0.98,2.353,1.765,4.902,2.157,8.039l0.588,3.921l-15.882,1.961l-0.392-3.529C229.216,191.765,228.431,189.216,227.647,188.039z"/>
	<path fill="#1E3161" d="M265.883,171.373l2.744,22.941l10.197-1.176l-2.746-22.941l16.471-1.961l7.647,62.941l-16.471,1.961
		l-3.333-25.882l-10.196,1.176l3.138,26.079l-16.471,1.961l-7.647-62.941L265.883,171.373z"/>
	<path fill="#1E3161" d="M301.373,183.726c0.195-4.118,0.98-7.843,2.549-10.588s3.529-4.902,6.274-6.667
		c2.745-1.569,6.274-2.549,10.392-3.137c4.118-0.588,7.844-0.392,10.785,0.588c2.94,0.785,5.489,2.353,7.646,4.902
		c1.961,2.353,3.726,5.686,4.902,9.607c1.176,4.118,2.353,9.02,2.94,14.902c0.589,5.882,0.98,10.98,0.589,15.294
		c-0.196,4.118-0.98,7.843-2.549,10.588c-1.569,2.745-3.53,4.902-6.275,6.471c-2.744,1.568-6.274,2.353-10.392,2.941
		c-4.118,0.588-7.843,0.392-10.784-0.392s-5.49-2.353-7.647-4.706c-1.961-2.353-3.726-5.686-4.901-9.608
		c-1.177-4.118-2.354-9.02-2.941-14.902S300.98,188.039,301.373,183.726z M320.393,207.255c0.392,2.745,0.979,4.902,1.568,6.667
		c0.588,1.569,1.372,2.745,2.156,3.137c0.785,0.588,1.961,0.785,3.138,0.588c1.177-0.196,2.157-0.588,2.745-1.373
		c0.588-0.588,0.98-1.961,1.177-3.726s0.196-3.921-0.196-6.667c-0.196-2.745-0.588-6.274-0.98-10.588
		c-0.588-4.118-0.98-7.647-1.568-10.588c-0.393-2.745-0.98-4.902-1.569-6.667c-0.588-1.568-1.372-2.745-2.156-3.137
		s-1.961-0.784-3.138-0.588c-1.176,0.196-2.156,0.588-2.745,1.373c-0.588,0.588-0.98,1.96-1.176,3.725
		c-0.196,1.765-0.196,3.922,0.195,6.667c0.393,2.745,0.589,6.274,0.98,10.588C319.607,200.98,320,204.51,320.393,207.255z"/>
	<path fill="#1E3161" d="M350.393,177.647c0.195-4.118,0.98-7.843,2.549-10.588s3.529-4.902,6.274-6.667
		c2.745-1.568,6.274-2.549,10.392-3.137c4.118-0.588,7.844-0.392,10.785,0.588c2.94,0.784,5.49,2.353,7.646,4.902
		c1.961,2.353,3.726,5.686,4.902,9.608c1.176,4.118,2.353,9.02,2.941,14.902c0.588,5.882,0.979,10.98,0.588,15.294
		c-0.196,4.118-0.98,7.843-2.549,10.588c-1.569,2.745-3.529,4.902-6.274,6.471c-2.745,1.568-6.274,2.353-10.393,2.941
		c-4.117,0.588-7.843,0.393-10.784-0.392c-2.941-0.784-5.49-2.353-7.647-4.706c-1.961-2.353-3.726-5.687-4.901-9.608
		c-1.177-4.118-2.354-9.02-2.941-14.902C350.393,187.059,350,181.961,350.393,177.647z M369.412,201.373
		c0.392,2.745,0.98,4.902,1.568,6.667c0.588,1.569,1.372,2.745,2.157,3.137c0.784,0.392,1.96,0.785,3.137,0.588
		c1.177-0.196,2.157-0.588,2.745-1.373c0.588-0.588,0.98-1.961,1.177-3.726s0.196-3.921,0-6.667s-0.589-6.274-0.98-10.588
		c-0.588-4.118-0.98-7.647-1.568-10.588c-0.393-2.745-0.98-4.902-1.569-6.667c-0.588-1.568-1.372-2.745-2.156-3.137
		c-0.784-0.588-1.961-0.784-3.138-0.588c-1.177,0.196-2.157,0.588-2.745,1.373c-0.588,0.588-0.98,1.961-1.177,3.726
		c-0.195,1.765-0.195,3.922,0.196,6.667c0.393,2.745,0.589,6.274,0.98,10.588C368.627,195.098,369.02,198.627,369.412,201.373z"/>
	<path fill="#1E3161" d="M414.51,153.137l6.078,49.608l20.196-2.353l1.568,13.333l-36.47,4.313l-7.647-62.941L414.51,153.137z"/>
	<path fill="#1E3161" d="M60,298.627l-2.745-23.529l68.627-8.432l2.745,23.53l-20.784,2.549l10.196,82.353l-27.451,3.529
		l-10.196-82.353L60,298.627z"/>
	<path fill="#1E3161" d="M134.118,293.726c0.392-7.06,1.961-13.138,4.313-17.843c2.353-4.707,5.882-8.432,10.588-10.98
		c4.51-2.549,10.392-4.314,17.451-5.295c7.059-0.783,13.137-0.588,18.235,0.785c5.098,1.568,9.412,4.117,12.941,8.234
		c3.529,4.118,6.274,9.412,8.432,16.275c2.157,6.666,3.725,15.098,4.902,25.098c1.176,9.804,1.568,18.235,1.176,25.49
		c-0.392,7.059-1.96,13.137-4.313,17.844c-2.353,4.705-5.882,8.431-10.588,10.783c-4.51,2.354-10.392,4.118-17.451,4.902
		c-7.059,0.784-13.137,0.588-18.039-0.588c-5.098-1.373-9.216-3.922-12.745-8.039c-3.529-4.118-6.274-9.412-8.431-16.275
		c-2.157-6.666-3.726-15.098-4.902-25.098C134.118,309.412,133.726,300.98,134.118,293.726z M166.274,333.334
		c0.784,4.705,1.569,8.431,2.745,10.979c0.98,2.745,2.157,4.511,3.529,5.294c1.373,0.785,3.138,1.177,5.098,0.98
		c1.961-0.195,3.726-0.98,4.706-2.353c0.98-1.177,1.765-3.138,2.157-6.079c0.196-2.744,0.196-6.666-0.196-11.372
		c-0.393-4.706-0.98-10.588-1.961-17.843c-0.784-7.059-1.765-12.941-2.353-17.647c-0.784-4.706-1.569-8.431-2.745-10.98
		c-0.98-2.745-2.157-4.51-3.529-5.294c-1.177-0.588-2.941-0.784-5.098-0.784c-1.961,0.196-3.726,0.98-4.706,2.353
		c-0.98,1.177-1.765,3.138-2.157,6.078c-0.196,2.746-0.196,6.668,0.196,11.373c0.392,4.706,0.98,10.588,1.96,17.844
		C164.706,322.941,165.49,328.824,166.274,333.334z"/>
	<path fill="#1E3161" d="M254.117,251.176c8.039-0.979,14.314-0.195,19.217,1.961c4.901,2.354,8.627,5.883,11.372,10.589
		c2.745,4.51,4.901,10.196,6.274,16.471c1.176,6.274,2.354,12.94,3.137,19.804c0.785,6.863,1.569,13.529,1.766,20
		c0.195,6.471-0.393,12.354-1.961,17.451s-4.51,9.412-8.628,12.941s-10.196,5.686-18.039,6.666l-40,4.902l-12.941-105.687
		L254.117,251.176z M257.844,337.646c2.744-0.195,4.705-0.98,6.273-1.96c1.569-0.98,2.549-2.745,3.138-5.099
		c0.589-2.353,0.589-5.882,0.392-10.195c-0.195-4.314-0.783-10.196-1.764-17.256c-0.785-7.059-1.766-12.744-2.354-17.059
		c-0.784-4.313-1.765-7.451-2.745-9.804s-2.549-3.726-4.118-4.118c-1.568-0.588-3.725-0.588-6.47-0.195l-5.49,0.588l8.039,66.078
		L257.844,337.646z"/>
	<path fill="#1E3161" d="M362.549,237.843l29.804-3.726l14.902,35.49h0.196l5.882-38.039l30.196-3.725l-19.216,67.254l5.099,41.568
		L401.961,340l-5.099-41.568L362.549,237.843z"/>
</g>
<g>
	<path fill="#6FCCE0" stroke="#FFFFFF" stroke-width="4.527" stroke-miterlimit="10" d="M270.588,322.156
		c0,0,36.274-9.411,47.451-60.98c3.138-14.901,17.844-24.313,32.745-20.979c14.902,3.137,24.313,17.843,20.98,32.745
		c-11.177,51.568,17.843,75.294,17.843,75.294l-1.765,7.843l-48.627-10.588c-1.373,6.078-7.451,10-13.529,8.627
		c-6.079-1.372-10-7.451-8.628-13.529L268.432,330L270.588,322.156z"/>
	<path fill="#6FCCE0" d="M270.588,322.156c0,0,36.274-9.411,47.451-60.98c3.138-14.901,17.844-24.313,32.745-20.979
		c14.902,3.137,24.313,17.843,20.98,32.745c-11.177,51.568,17.843,75.294,17.843,75.294l-1.765,7.843l-48.627-10.588
		c-1.373,6.078-7.451,10-13.529,8.627c-6.079-1.372-10-7.451-8.628-13.529L268.432,330L270.588,322.156z"/>
</g>
<g>
	<g>
		<path fill="#1E3161" d="M424.51,152.157l-0.196-1.176l8.432-0.98l0.196,1.176l-3.529,0.393l1.176,9.215l-1.372,0.196l-1.177-9.216
			L424.51,152.157z"/>
		<path fill="#1E3161" d="M435.687,149.608l4.51,8.431l2.353-9.215l1.961-0.196l1.373,10.588l-1.373,0.196l-0.98-8.823l0,0
			l-2.157,9.215L440.196,160l-4.313-8.432l0,0l0.979,8.824l-1.372,0.196L434.117,150L435.687,149.608z"/>
	</g>
</g>
</svg>
