<?xml version="1.0" encoding="utf-8"?>
<!DOCTYPE svg PUBLIC "-//W3C//DTD SVG 1.1//EN" "http://www.w3.org/Graphics/SVG/1.1/DTD/svg11.dtd">
<svg version="1.1" id="Layer_1" xmlns="http://www.w3.org/2000/svg" xmlns:xlink="http://www.w3.org/1999/xlink" x="0px" y="0px"
	 width="128.5px" height="172.973px" viewBox="-3.313 0 128.5 172.973" enable-background="new -3.313 0 128.5 172.973"
	 xml:space="preserve">
<path fill="#6FCCE0" d="M113.488,13.457l-1.96,0.196c-2.353,0.195-4.313,0.392-6.274,0.588c-6.274,0.785-8.824,1.177-13.922-6.667
	C84.666-2.622,73.293-0.465,68.195,2.281L67.02,2.868l0.195,1.569l0,0l10.588,87.059l4.119-0.588l-7.256-58.627
	c3.137-1.177,11.373-3.333,16.471,4.51c6.471,10,11.568,9.216,17.844,8.431c1.766-0.195,3.727-0.588,5.882-0.588l2.353-0.195
	L113.488,13.457z"/>
<g>
	<path fill="#6FCCE0" stroke="#F4F4F4" stroke-width="4.527" stroke-miterlimit="10" d="M2.155,135.619
		c0,0,36.274-9.411,47.451-60.98c3.138-14.901,17.844-24.313,32.745-20.979c14.901,3.138,24.312,17.844,20.979,32.745
		c-11.177,51.568,17.844,75.294,17.844,75.294l-1.766,7.844l-48.627-10.588c-1.373,6.077-7.451,10-13.529,8.627
		c-6.078-1.372-10-7.451-8.628-13.529L0,143.463L2.155,135.619z"/>
	<path fill="#6FCCE0" stroke="#F4F4F4" stroke-miterlimit="10" d="M2.155,135.619c0,0,36.274-9.411,47.451-60.98
		c3.138-14.901,17.844-24.313,32.745-20.979c14.901,3.138,24.312,17.844,20.979,32.745c-11.177,51.568,17.844,75.294,17.844,75.294
		l-1.766,7.844l-48.627-10.588c-1.373,6.077-7.451,10-13.529,8.627c-6.078-1.372-10-7.451-8.628-13.529L0,143.463L2.155,135.619z"/>
</g>
</svg>
